# This file uses centimeters as units for non-parametric coordinates.

mtllib river.mtl
g default
v 25545.257813 498.278351 8453.253906
v 26103.484375 491.126282 8458.739258
v 25581.023438 489.524170 6318.911133
v 26252.794922 491.074860 6321.013672
v 25232.386719 490.860260 10292.432617
v 25736.568359 458.299683 10259.615234
v 24951.212891 502.209625 11800.607422
v 25527.472656 470.410370 11773.301758
v 25040.125000 493.296143 13444.713867
v 25627.146484 489.655487 13489.298828
v 24885.107422 481.320526 13907.171875
v 25346.847656 460.497375 14135.996094
v 24222.349609 483.024170 14713.035156
v 24636.111328 462.639801 15089.811523
v 23383.214844 480.123474 15281.355469
v 23815.562500 493.737427 15657.059570
v 22676.669922 462.276123 15824.750000
v 23055.322266 461.287445 16123.411133
v 22347.820313 322.629486 16164.167969
v 22508.972656 329.609772 16412.093750
v 22091.339844 119.497078 16366.084961
v 22192.625000 133.339798 16618.320313
v 21582.611328 -2.061065 16672.828125
v 21872.437500 18.782511 16934.250000
v 20601.996094 63.643940 17143.265625
v 20869.402344 30.564035 17498.492188
v 19350.527344 40.033985 17628.841797
v 19439.298828 26.921005 18152.552734
v 18410.419922 -5.180734 17717.660156
v 18373.234375 60.660980 18264.742188
v 17859.369141 59.097916 17164.738281
v 17558.410156 34.245152 17643.671875
v 17325.662109 25.530535 16690.927734
v 17023.019531 57.792587 17171.765625
v 16609.751953 66.918388 15805.290039
v 16303.695313 58.198315 16287.342773
vt 0.130757 0.850052
vt 0.155422 0.879352
vt 0.048942 0.980469
vt 0.019531 0.945059
vt 0.214334 0.753315
vt 0.234642 0.781448
vt 0.281766 0.672665
vt 0.305489 0.704353
vt 0.372570 0.605681
vt 0.400494 0.634769
vt 0.390357 0.577342
vt 0.422468 0.591848
vt 0.404402 0.507468
vt 0.442092 0.513108
vt 0.398391 0.438871
vt 0.436748 0.445514
vt 0.396528 0.378458
vt 0.428360 0.385223
vt 0.399983 0.346100
vt 0.419464 0.343597
vt 0.397655 0.320945
vt 0.414978 0.315553
vt 0.391217 0.280534
vt 0.417365 0.284481
vt 0.373668 0.208779
vt 0.403963 0.207506
vt 0.345382 0.122119
vt 0.376727 0.104124
vt 0.309191 0.068959
vt 0.336476 0.043013
vt 0.256017 0.063975
vt 0.268277 0.027281
vt 0.207730 0.056523
vt 0.219974 0.019531
vt 0.129691 0.057256
vt 0.141869 0.020091
vn 0.019452 0.999786 0.007078
vn 0.017295 0.999834 0.005782
vn 0.004565 0.999988 -0.001863
vn 0.004565 0.999988 -0.001863
vn 0.049428 0.998733 0.009467
vn 0.046205 0.998861 0.011866
vn 0.042590 0.999091 -0.002004
vn 0.044455 0.999010 -0.001573
vn 0.025813 0.999640 0.007352
vn 0.026525 0.999633 0.005515
vn 0.025031 0.999265 0.029034
vn 0.024420 0.999262 0.029656
vn 0.022134 0.999722 0.008095
vn 0.023060 0.999689 0.009508
vn -0.007339 0.999966 0.003755
vn -0.001017 0.999999 0.000824
vn -0.083459 0.994041 0.070127
vn -0.060061 0.997104 0.046655
vn -0.269913 0.945775 0.180712
vn -0.276317 0.943751 0.181612
vn -0.324688 0.934685 0.144712
vn -0.292270 0.947428 0.130228
vn -0.014533 0.999844 0.010046
vn -0.047486 0.998581 0.024116
vn 0.017937 0.999414 0.029143
vn 0.020821 0.999545 0.021838
vn 0.001571 0.999970 0.007580
vn 0.000449 0.999997 0.002391
vn 0.020197 0.999156 -0.035781
vn 0.011271 0.999155 -0.039524
vn 0.021644 0.999640 -0.015852
vn 0.026865 0.999487 -0.017444
vn 0.021958 0.999746 -0.005131
vn 0.016736 0.999842 -0.005932
vn 0.033288 0.999440 -0.003393
vn 0.033288 0.999440 -0.003393
s 1
g pPlane1
usemtl initialShadingGroup
f 1/1/1 2/2/2 4/3/3 3/4/4
f 2/2/2 1/1/1 5/5/5 6/6/6
f 6/6/6 5/5/5 7/7/7 8/8/8
f 8/8/8 7/7/7 9/9/9 10/10/10
f 10/10/10 9/9/9 11/11/11 12/12/12
f 12/12/12 11/11/11 13/13/13 14/14/14
f 14/14/14 13/13/13 15/15/15 16/16/16
f 16/16/16 15/15/15 17/17/17 18/18/18
f 18/18/18 17/17/17 19/19/19 20/20/20
f 20/20/20 19/19/19 21/21/21 22/22/22
f 22/22/22 21/21/21 23/23/23 24/24/24
f 24/24/24 23/23/23 25/25/25 26/26/26
f 26/26/26 25/25/25 27/27/27 28/28/28
f 28/28/28 27/27/27 29/29/29 30/30/30
f 30/30/30 29/29/29 31/31/31 32/32/32
f 32/32/32 31/31/31 33/33/33 34/34/34
f 34/34/34 33/33/33 35/35/35 36/36/36
