# This file uses centimeters as units for non-parametric coordinates.

mtllib stone_ver2.mtl
g default
v -143220.988253 197.453828 34390.352935
v -142312.648705 130.778524 34391.345411
v -143208.409423 706.551443 34370.594466
v -142378.596755 675.717745 34283.857516
v -143221.983797 716.982575 32876.098434
v -142359.990849 719.921597 32843.720039
v -143226.275398 213.650396 32792.551370
v -142335.774918 217.011012 32796.284537
v -143296.286344 728.438822 33619.478221
v -142230.260728 498.499218 32604.545436
v -142777.460035 93.791786 32599.704459
v -143408.742434 496.023431 32620.203491
v -142175.909418 100.967564 33591.782978
v -143274.895605 233.838538 33589.145480
v -142780.069974 102.830776 34642.636115
v -142146.500516 464.624194 34522.822698
v -142777.702194 745.871516 34500.174818
v -143356.032425 461.665419 34522.063925
v -142277.643232 733.655242 33601.373879
v -142778.670832 767.436131 32720.501246
v -142769.186259 453.568689 34838.533297
v -142782.316674 783.013813 33620.045784
v -142790.065772 499.560122 32371.847725
v -142774.540670 13.009621 33591.949908
v -142072.009623 452.388654 33603.713937
v -143424.052283 471.552473 33586.119490
v -143315.390022 645.494337 32733.342734
v -142295.885900 635.835059 32699.950617
v -142487.016857 505.949748 32368.272383
v -142250.588656 310.936561 32645.783273
v -142497.241361 137.942260 32649.331300
v -142783.688911 298.853623 32396.425925
v -143049.781626 149.810895 32654.190487
v -143304.196881 337.547677 32675.885347
v -142766.455240 110.089714 33053.278184
v -143064.351544 95.678714 33590.981713
v -143247.787216 252.902003 33105.393803
v -142209.811720 124.542720 33095.642043
v -142447.464170 -7.265216 33590.456641
v -142205.695012 52.650447 34079.844490
v -142777.406222 30.682559 34169.313025
v -143261.132885 218.920346 34073.707527
v -142073.032074 282.211196 33598.618012
v -141993.845981 468.787819 34102.304194
v -142117.710465 475.554349 33079.895969
v -142094.019213 633.321106 33601.018773
v -143455.775152 307.115210 33584.085977
v -143428.182444 482.033659 33083.246714
v -143385.024275 461.706938 34072.991245
v -143439.039253 621.523560 33603.559147
v -143035.198254 179.634841 34551.173522
v -142774.675203 256.982040 34867.530596
v -143073.445971 458.635981 34768.698792
v -143316.116500 289.696356 34492.228939
v -142505.663123 74.858366 34567.994020
v -142207.901352 252.525708 34501.237102
v -142427.687827 467.839035 34802.008962
v -142303.688810 562.342560 34390.544146
v -142543.251628 723.589674 34412.612323
v -142769.993457 651.574307 34772.116309
v -143036.476317 763.828047 34500.056450
v -143265.330313 591.314357 34470.631202
v -142777.258236 868.250573 34105.521395
v -143064.741689 817.827500 33625.126533
v -143301.990540 776.713383 34090.886166
v -142341.263862 663.684984 34006.531766
v -142521.188225 762.191544 33609.125512
v -142296.141512 727.761590 33145.277989
v -142529.381282 713.137813 32750.087354
v -142779.370403 784.139404 33134.108839
v -143057.557630 819.945284 32749.671546
v -143277.909143 729.535270 33168.174747
v -142786.016331 710.074660 32429.815007
v -143121.460779 506.607775 32389.108311
v -143103.285378 245.961897 34806.934921
v -142494.510342 278.775224 34735.030482
v -142515.780001 579.909079 34623.697121
v -143068.495158 647.710766 34729.388240
v -143043.525844 788.321075 34099.299450
v -142526.004505 811.333314 34053.232776
v -142517.407849 774.903122 33141.253453
v -143059.831237 848.044446 33152.449919
v -143078.719662 662.891425 32527.059456
v -142520.354121 641.649087 32516.020815
v -142486.182752 284.844159 32403.260960
v -143087.881356 296.972822 32430.725536
v -143028.538873 187.143657 33079.340547
v -142465.706838 27.722260 33066.738831
v -142485.093036 24.538817 34126.235919
v -143063.046574 67.997732 34130.278666
v -142045.520086 244.830758 34087.505070
v -142121.221775 302.640710 33090.376153
v -142141.886036 640.120620 33106.231490
v -142115.046713 641.583851 34051.460280
v -143442.940709 309.792253 33083.301346
v -143406.630266 313.984593 34069.255043
v -143397.145694 605.493922 34081.006931
v -143485.749092 670.654843 33116.811831
vt 0.937196 0.397919
vt 0.048980 0.397919
vt 0.937196 0.548382
vt 0.048980 0.548382
vt 0.787462 0.397919
vt 0.787462 0.548382
vt 0.508927 0.397919
vt 0.787462 0.155602
vt 0.508927 0.548382
vt 0.787462 0.780312
vt 0.354517 0.397919
vt 0.937196 0.155602
vt 0.354517 0.548382
vt 0.937196 0.780312
vt 0.648219 0.397919
vt 0.787462 0.274557
vt 0.431766 0.548382
vt 0.859252 0.780312
vt 0.354517 0.474454
vt 0.431766 0.397919
vt 0.859252 0.155602
vt 0.203975 0.548382
vt 0.937196 0.658893
vt 0.203975 0.397919
vt 0.937196 0.274557
vt 0.937196 0.474454
vt 0.048980 0.474454
vt 0.859252 0.548382
vt 0.787462 0.474454
vt 0.859252 0.397919
vt 0.648219 0.548382
vt 0.787462 0.658893
vt 0.508927 0.474454
vt 0.859252 0.474454
vt 0.648219 0.474454
vt 0.431766 0.474454
vt 0.203975 0.474454
vt 0.859252 0.658893
vt 0.859252 0.274557
vt 0.893881 0.433275
vt 0.893881 0.514341
vt 0.828585 0.514341
vt 0.828585 0.433275
vt 0.723714 0.433275
vt 0.723714 0.514341
vt 0.573024 0.514341
vt 0.573024 0.433275
vt 0.465548 0.433275
vt 0.465548 0.514341
vt 0.397421 0.514341
vt 0.397421 0.433275
vt 0.286681 0.433275
vt 0.286681 0.514341
vt 0.118249 0.514341
vt 0.118249 0.433275
vt 0.893881 0.592845
vt 0.893881 0.731363
vt 0.828585 0.731363
vt 0.828585 0.592845
vt 0.893881 0.202854
vt 0.893881 0.349790
vt 0.828585 0.349790
vt 0.828585 0.202854
vt 0.937196 0.433275
vt 0.048980 0.433275
vt 0.893881 0.474454
vt 0.859252 0.433275
vt 0.893881 0.397919
vt 0.937196 0.514341
vt 0.048980 0.514341
vt 0.893881 0.548382
vt 0.859252 0.514341
vt 0.828585 0.548382
vt 0.787462 0.514341
vt 0.828585 0.474454
vt 0.787462 0.433275
vt 0.828585 0.397919
vt 0.723714 0.474454
vt 0.648219 0.433275
vt 0.723714 0.397919
vt 0.787462 0.349790
vt 0.723714 0.548382
vt 0.787462 0.592845
vt 0.648219 0.514341
vt 0.573024 0.548382
vt 0.787462 0.731363
vt 0.508927 0.514341
vt 0.573024 0.474454
vt 0.508927 0.433275
vt 0.573024 0.397919
vt 0.787462 0.202854
vt 0.465548 0.474454
vt 0.431766 0.433275
vt 0.465548 0.397919
vt 0.828585 0.155602
vt 0.465548 0.548382
vt 0.828585 0.780312
vt 0.431766 0.514341
vt 0.397421 0.548382
vt 0.893881 0.780312
vt 0.354517 0.514341
vt 0.397421 0.474454
vt 0.354517 0.433275
vt 0.397421 0.397919
vt 0.893881 0.155602
vt 0.286681 0.474454
vt 0.203975 0.433275
vt 0.286681 0.397919
vt 0.937196 0.202854
vt 0.286681 0.548382
vt 0.937196 0.731363
vt 0.203975 0.514341
vt 0.118249 0.548382
vt 0.937196 0.592845
vt 0.118249 0.474454
vt 0.118249 0.397919
vt 0.937196 0.349790
vt 0.893881 0.658893
vt 0.859252 0.592845
vt 0.859252 0.731363
vt 0.828585 0.658893
vt 0.893881 0.274557
vt 0.859252 0.202854
vt 0.859252 0.349790
vt 0.828585 0.274557
vn -0.478638 -0.865278 0.148993
vn -0.301152 -0.919333 0.253248
vn -0.481583 -0.528117 0.699407
vn -0.829056 -0.427946 0.359900
vn -0.076391 -0.942968 0.323999
vn 0.017537 -0.511272 0.859240
vn 0.044437 0.241335 0.969424
vn -0.482941 0.206290 0.851007
vn -0.901144 0.135509 0.411797
vn 0.176640 -0.925735 0.334385
vn 0.433357 -0.479150 0.763293
vn 0.492523 -0.789810 0.365542
vn 0.725157 -0.484829 0.488966
vn 0.812092 0.254753 0.524983
vn 0.516941 0.321049 0.793536
vn 0.376072 0.784544 0.493011
vn 0.126248 0.761177 0.636138
vn 0.440659 0.838357 0.320900
vn 0.480755 0.837931 0.258353
vn 0.379344 0.874013 0.303644
vn 0.100944 0.947839 0.302344
vn -0.369677 0.670179 0.643583
vn -0.785024 0.464721 0.409600
vn -0.180478 0.947366 0.264434
vn -0.547256 0.784372 0.292012
vn -0.144953 0.987955 0.054159
vn -0.458252 0.885068 0.081605
vn 0.037406 0.998169 0.047530
vn 0.073996 0.996601 -0.036204
vn -0.124739 0.992184 -0.003287
vn -0.464196 0.885565 0.017205
vn 0.271751 0.961004 0.051220
vn 0.364092 0.923736 0.118946
vn 0.324492 0.945479 0.027823
vn 0.177780 0.983896 -0.018536
vn 0.115584 0.992604 -0.037120
vn 0.141300 0.989733 -0.021497
vn 0.325634 0.943543 -0.060736
vn 0.285811 0.939695 -0.187845
vn 0.191322 0.964469 -0.182195
vn 0.129312 0.975137 -0.179960
vn -0.088575 0.995962 -0.014609
vn -0.423947 0.905316 -0.025906
vn -0.124865 0.975289 -0.182262
vn -0.460047 0.866226 -0.194962
vn -0.320435 0.744662 -0.585491
vn -0.649690 0.669952 -0.359258
vn 0.048998 0.824940 -0.563092
vn -0.031665 0.167461 -0.985370
vn -0.434648 0.182190 -0.881980
vn -0.893596 0.041467 -0.446952
vn 0.309171 0.775449 -0.550538
vn 0.624458 0.694091 -0.358176
vn 0.863594 0.175065 -0.472819
vn 0.407488 0.225268 -0.884990
vn 0.362246 -0.556374 -0.747814
vn -0.039725 -0.529248 -0.847536
vn 0.810643 -0.379594 -0.445833
vn 0.576293 -0.745069 -0.335795
vn 0.206633 -0.915079 -0.346313
vn -0.105290 -0.960359 -0.258119
vn -0.375206 -0.577658 -0.724936
vn -0.738072 -0.554737 -0.384079
vn -0.283511 -0.935551 -0.210634
vn -0.447513 -0.886392 -0.118495
vn -0.310704 -0.948791 -0.057091
vn -0.394531 -0.917046 -0.058070
vn -0.188838 -0.977516 -0.093825
vn -0.164023 -0.984544 -0.061397
vn -0.363768 -0.927520 -0.085908
vn -0.455442 -0.889101 -0.045516
vn 0.110481 -0.983959 -0.140063
vn 0.606440 -0.776673 -0.170322
vn 0.594216 -0.802400 -0.055337
vn 0.091526 -0.995051 -0.038690
vn 0.083402 -0.993183 0.081433
vn -0.127977 -0.988203 0.084124
vn 0.478096 -0.874395 0.082814
vn -0.341523 -0.937647 0.064645
vn -0.537746 -0.842551 0.030599
vn 0.894140 -0.432007 0.117829
vn 0.945360 -0.313856 -0.088259
vn 0.992873 0.077402 -0.090624
vn 0.970838 0.191167 0.144667
vn 0.938267 -0.293440 -0.183160
vn 0.981074 0.084909 -0.174026
vn 0.801816 0.581626 -0.137124
vn 0.766888 0.641209 -0.027087
vn 0.594760 0.793009 0.131901
vn -0.819827 -0.566330 -0.084580
vn -0.848526 -0.528874 0.017202
vn -0.998850 -0.002748 0.047862
vn -0.994624 -0.051933 -0.089585
vn -0.891652 -0.444188 0.087486
vn -0.990204 0.070075 0.120774
vn -0.921038 0.364060 0.138384
vn -0.932636 0.356971 0.052547
vn -0.834351 0.547981 -0.059787
s 1
g pCube8
usemtl initialShadingGroup
f 1/1/1 51/64/2 75/40/3 54/68/4
f 51/64/2 15/26/5 52/66/6 75/40/3
f 75/40/3 52/66/6 21/34/7 53/67/8
f 54/68/4 75/40/3 53/67/8 18/30/9
f 15/26/5 55/69/10 76/41/11 52/66/6
f 55/69/10 2/3/12 56/71/13 76/41/11
f 76/41/11 56/71/13 16/28/14 57/72/15
f 52/66/6 76/41/11 57/72/15 21/34/7
f 21/34/7 57/72/15 77/42/16 60/75/17
f 57/72/15 16/28/14 58/73/18 77/42/16
f 77/42/16 58/73/18 4/6/19 59/74/20
f 60/75/17 77/42/16 59/74/20 17/29/21
f 18/30/9 53/67/8 78/43/22 62/77/23
f 53/67/8 21/34/7 60/75/17 78/43/22
f 78/43/22 60/75/17 17/29/21 61/76/24
f 62/77/23 78/43/22 61/76/24 3/5/25
f 3/5/25 61/76/24 79/44/26 65/80/27
f 61/76/24 17/29/21 63/78/28 79/44/26
f 79/44/26 63/78/28 22/35/29 64/79/30
f 65/80/27 79/44/26 64/79/30 9/15/31
f 17/29/21 59/74/20 80/45/32 63/78/28
f 59/74/20 4/6/19 66/82/33 80/45/32
f 80/45/32 66/82/33 19/31/34 67/84/35
f 63/78/28 80/45/32 67/84/35 22/35/29
f 22/35/29 67/84/35 81/46/36 70/88/37
f 67/84/35 19/31/34 68/85/38 81/46/36
f 81/46/36 68/85/38 6/9/39 69/87/40
f 70/88/37 81/46/36 69/87/40 20/33/41
f 9/15/31 64/79/30 82/47/42 72/90/43
f 64/79/30 22/35/29 70/88/37 82/47/42
f 82/47/42 70/88/37 20/33/41 71/89/44
f 72/90/43 82/47/42 71/89/44 5/7/45
f 5/7/45 71/89/44 83/48/46 27/94/47
f 71/89/44 20/33/41 73/92/48 83/48/46
f 83/48/46 73/92/48 23/36/49 74/93/50
f 27/94/47 83/48/46 74/93/50 12/20/51
f 20/33/41 69/87/40 84/49/52 73/92/48
f 69/87/40 6/9/39 28/96/53 84/49/52
f 84/49/52 28/96/53 10/17/54 29/98/55
f 73/92/48 84/49/52 29/98/55 23/36/49
f 23/36/49 29/98/55 85/50/56 32/102/57
f 29/98/55 10/17/54 30/99/58 85/50/56
f 85/50/56 30/99/58 8/13/59 31/101/60
f 32/102/57 85/50/56 31/101/60 11/19/61
f 12/20/51 74/93/50 86/51/62 34/104/63
f 74/93/50 23/36/49 32/102/57 86/51/62
f 86/51/62 32/102/57 11/19/61 33/103/64
f 34/104/63 86/51/62 33/103/64 7/11/65
f 7/11/65 33/103/64 87/52/66 37/108/67
f 33/103/64 11/19/61 35/106/68 87/52/66
f 87/52/66 35/106/68 24/37/69 36/107/70
f 37/108/67 87/52/66 36/107/70 14/24/71
f 11/19/61 31/101/60 88/53/72 35/106/68
f 31/101/60 8/13/59 38/110/73 88/53/72
f 88/53/72 38/110/73 13/22/74 39/112/75
f 35/106/68 88/53/72 39/112/75 24/37/69
f 24/37/69 39/112/75 89/54/76 41/115/77
f 39/112/75 13/22/74 40/113/78 89/54/76
f 89/54/76 40/113/78 2/4/12 55/70/10
f 41/115/77 89/54/76 55/70/10 15/27/5
f 14/24/71 36/107/70 90/55/79 42/116/80
f 36/107/70 24/37/69 41/115/77 90/55/79
f 90/55/79 41/115/77 15/27/5 51/65/2
f 42/116/80 90/55/79 51/65/2 1/2/1
f 2/3/12 40/114/78 91/56/81 56/71/13
f 40/114/78 13/23/74 43/118/82 91/56/81
f 91/56/81 43/118/82 25/38/83 44/119/84
f 56/71/13 91/56/81 44/119/84 16/28/14
f 13/23/74 38/111/73 92/57/85 43/118/82
f 38/111/73 8/14/59 30/100/58 92/57/85
f 92/57/85 30/100/58 10/18/54 45/120/86
f 43/118/82 92/57/85 45/120/86 25/38/83
f 25/38/83 45/120/86 93/58/87 46/121/88
f 45/120/86 10/18/54 28/97/53 93/58/87
f 93/58/87 28/97/53 6/10/39 68/86/38
f 46/121/88 93/58/87 68/86/38 19/32/34
f 16/28/14 44/119/84 94/59/89 58/73/18
f 44/119/84 25/38/83 46/121/88 94/59/89
f 94/59/89 46/121/88 19/32/34 66/83/33
f 58/73/18 94/59/89 66/83/33 4/6/19
f 7/12/65 37/109/67 95/60/90 34/105/63
f 37/109/67 14/25/71 47/122/91 95/60/90
f 95/60/90 47/122/91 26/39/92 48/123/93
f 34/105/63 95/60/90 48/123/93 12/21/51
f 14/25/71 42/117/80 96/61/94 47/122/91
f 42/117/80 1/1/1 54/68/4 96/61/94
f 96/61/94 54/68/4 18/30/9 49/124/95
f 47/122/91 96/61/94 49/124/95 26/39/92
f 26/39/92 49/124/95 97/62/96 50/125/97
f 49/124/95 18/30/9 62/77/23 97/62/96
f 97/62/96 62/77/23 3/5/25 65/81/27
f 50/125/97 97/62/96 65/81/27 9/16/31
f 12/21/51 48/123/93 98/63/98 27/95/47
f 48/123/93 26/39/92 50/125/97 98/63/98
f 98/63/98 50/125/97 9/16/31 72/91/43
f 27/95/47 98/63/98 72/91/43 5/8/45
