# This file uses centimeters as units for non-parametric coordinates.

mtllib waterfall.mtl
g default
v -99406.906250 5070.895508 55177.234375
v -99628.273438 4799.448242 55200.222656
v -99414.062500 5125.085449 55471.796875
v -99633.125000 4897.562500 55673.449219
v -99649.718750 4880.465820 55857.660156
v -99414.062500 5106.774902 55862.414063
v -99414.062500 5160.226074 56054.679688
v -99640.171875 4926.649902 56075.789063
v -99804.671875 4750.046387 55273.437500
v -99688.054688 4855.385742 55510.753906
v -99829.117188 4681.455078 55485.386719
v -99869.453125 4708.806641 55686.636719
v -99830.796875 4690.961914 55857.093750
v -99804.671875 4870.901855 56054.679688
v -100000.398438 4556.922852 55273.312500
v -100079.328125 4447.708984 55449.527344
v -100054.875000 4396.043945 55663.582031
v -100004.890625 4473.562988 55858.867188
v -100195.921875 4165.560547 55273.250000
v -100268.429688 4049.151855 55437.414063
v -100201.375000 4087.227783 55661.500000
v -100397.140625 3638.568604 55072.003906
v -100419.734375 3631.125244 55239.855469
v -100397.554688 3495.828857 55515.296875
v -100588.484375 2731.108887 54882.261719
v -100628.460938 2881.269043 55068.011719
v -100625.453125 2902.656494 55261.453125
v -100592.148438 2878.662354 55466.785156
v -100781.265625 1168.284180 54296.882813
v -100839.148438 1421.860352 54460.894531
v -100585.937500 2329.244141 54492.179688
v -100585.937500 2508.697998 54687.500000
v -100839.726563 1558.980957 54628.484375
v -100835.445313 1805.630981 54856.351563
v -100800.273438 1979.268921 55070.578125
v -100782.335938 2088.032959 55273.011719
v -100982.273438 392.556702 54099.960938
v -101033.101563 511.491272 54271.015625
v -101016.789063 727.871643 54468.910156
v -101027.734375 976.081665 54665.011719
v -101017.804688 1139.251587 54852.832031
v -100976.562500 1322.102173 55078.117188
v -101173.531250 150.734711 54098.343750
v -101189.117188 282.521942 54261.792969
v -101172.773438 454.522308 54486.957031
v -101175.453125 662.535767 54679.203125
v -101171.882813 842.336548 54882.820313
v -101367.171875 0.000000 54101.562500
v -101369.039063 158.608383 54293.234375
v -101367.171875 197.765976 54492.179688
v -101367.171875 446.804626 54687.500000
v -99414.062500 5123.173828 55670.128906
v -99108.023438 5143.659180 55083.433594
v -99177.765625 5127.088379 55471.796875
v -99179.609375 5131.324219 55853.816406
v -99149.390625 5190.041016 56127.644531
v -99177.765625 5127.088379 55670.128906
vt 0.206588 0.805773
vt 0.244275 0.799290
vt 0.244660 0.853751
vt 0.209087 0.736572
vt 0.275261 0.853685
vt 0.210104 0.846689
vt 0.179298 0.754849
vt 0.247477 0.745755
vt 0.277218 0.814976
vt 0.272314 0.885469
vt 0.174793 0.822664
vt 0.240197 0.886306
vt 0.179678 0.661858
vt 0.228968 0.641592
vt 0.307855 0.875592
vt 0.308719 0.894930
vt 0.172403 0.856032
vt 0.212676 0.877217
vt 0.150508 0.661211
vt 0.303254 0.934727
vt 0.270356 0.926783
vt 0.237052 0.924891
vt 0.158555 0.529942
vt 0.191827 0.535880
vt 0.202787 0.921639
vt 0.128101 0.501779
vt 0.227683 0.534091
vt 0.158998 0.875026
vt 0.134291 0.341116
vt 0.169407 0.373675
vt 0.203230 0.394857
vt 0.152144 0.912485
vt 0.097652 0.295747
vt 0.110708 0.195166
vt 0.096920 0.460993
vt 0.141370 0.225607
vt 0.178297 0.259890
vt 0.079592 0.149894
vt 0.070195 0.270054
vt 0.085874 0.102737
vt 0.116785 0.140999
vt 0.065146 0.427644
vt 0.149992 0.174504
vt 0.048842 0.070335
vt 0.047799 0.110116
vt 0.044702 0.224222
vt 0.055721 0.049226
vt 0.089741 0.058307
vt 0.120712 0.103714
vt 0.024338 0.019531
vt 0.022041 0.045613
vt 0.019531 0.087534
vt 0.197528 0.960551
vt 0.129077 0.963657
vt 0.231670 0.965097
vt 0.263332 0.968990
vt 0.309777 0.980469
vn -0.773585 0.619626 -0.132779
vn -0.649434 0.728363 -0.218455
vn -0.726739 0.676664 -0.118222
vn -0.686764 0.726825 0.008973
vn -0.696261 0.716226 -0.047331
vn -0.696529 0.712176 -0.087479
vn -0.695397 0.700055 -0.162315
vn -0.658081 0.723824 -0.207383
vn -0.601292 0.798937 -0.012136
vn -0.708240 0.699100 -0.098262
vn -0.697409 0.715242 -0.045272
vn -0.748917 0.662234 0.023857
vn -0.759417 0.639339 -0.120549
vn -0.318729 0.721395 -0.614818
vn -0.772569 0.632856 0.051283
vn -0.856689 0.512679 0.056951
vn -0.875827 0.459074 0.148920
vn -0.814317 0.575009 -0.079077
vn -0.903334 0.414845 -0.109048
vn -0.935644 0.340086 0.094403
vn -0.916495 0.344251 0.203784
vn -0.935078 0.325617 -0.140011
vn -0.952396 0.298810 0.060446
vn -0.941783 0.264799 0.207186
vn -0.891741 0.254560 -0.374162
vn -0.948275 0.245636 -0.201091
vn -0.968557 0.232244 0.089216
vn -0.955361 0.232615 0.182141
vn -0.701438 0.277940 -0.656304
vn -0.857315 0.250448 -0.449762
vn -0.923862 0.267282 -0.273933
vn -0.917841 0.264529 -0.295961
vn -0.929669 0.266326 -0.254532
vn -0.951797 0.253424 -0.172799
vn -0.976093 0.216529 -0.018905
vn -0.978719 0.205093 -0.006725
vn -0.738902 0.430147 -0.518649
vn -0.797325 0.384989 -0.464817
vn -0.895163 0.309738 -0.320540
vn -0.888386 0.306934 -0.341412
vn -0.930667 0.323580 -0.170750
vn -0.959311 0.277637 -0.051386
vn -0.584114 0.595698 -0.551321
vn -0.649897 0.590573 -0.478391
vn -0.762083 0.495264 -0.417065
vn -0.757953 0.463644 -0.458848
vn -0.829361 0.439220 -0.345322
vn -0.526536 0.645574 -0.553168
vn -0.632737 0.656388 -0.410851
vn -0.756212 0.579503 -0.303841
vn -0.603020 0.512395 -0.611407
vn -0.709423 0.703857 0.036109
vn -0.150241 0.986080 -0.071238
vn -0.150241 0.986080 -0.071238
vn -0.150241 0.986080 -0.071238
vn -0.150241 0.986080 -0.071238
vn -0.076234 0.970525 -0.228626
vn -0.076234 0.970525 -0.228626
vn -0.076234 0.970525 -0.228626
vn -0.076234 0.970525 -0.228626
vn -0.012520 0.999910 0.004822
vn -0.012520 0.999910 0.004822
vn -0.012520 0.999910 0.004822
vn -0.012520 0.999910 0.004822
vn -0.059744 0.997701 0.031980
vn -0.059744 0.997701 0.031980
vn -0.059744 0.997701 0.031980
vn -0.059744 0.997701 0.031980
s 1
g waterfall1
usemtl initialShadingGroup
f 1/32/1 2/28/2 3/25/3
f 4/12/4 5/10/5 6/21/6
f 6/21/6 5/10/5 7/20/7
f 5/10/5 8/16/8 7/20/7
f 2/28/2 9/17/9 10/18/10
f 9/17/9 11/6/11 10/18/10
f 10/18/10 11/6/11 4/12/4
f 11/6/11 12/3/12 4/12/4
f 4/12/4 12/3/12 5/10/5
f 12/3/12 13/5/13 5/10/5
f 5/10/5 13/5/13 8/16/8
f 13/5/13 14/15/14 8/16/8
f 9/17/9 15/11/15 11/6/11
f 15/11/15 16/1/16 11/6/11
f 11/6/11 16/1/16 12/3/12
f 16/1/16 17/2/17 12/3/12
f 12/3/12 17/2/17 13/5/13
f 17/2/17 18/9/18 13/5/13
f 13/5/13 18/9/18 14/15/14
f 15/11/15 19/7/19 16/1/16
f 19/7/19 20/4/20 16/1/16
f 16/1/16 20/4/20 17/2/17
f 20/4/20 21/8/21 17/2/17
f 17/2/17 21/8/21 18/9/18
f 22/19/22 23/13/23 19/7/19
f 19/7/19 23/13/23 20/4/20
f 23/13/23 24/14/24 20/4/20
f 20/4/20 24/14/24 21/8/21
f 25/26/25 26/23/26 22/19/22
f 22/19/22 26/23/26 23/13/23
f 26/23/26 27/24/27 23/13/23
f 23/13/23 27/24/27 24/14/24
f 27/24/27 28/27/28 24/14/24
f 29/46/29 30/39/30 31/42/31
f 31/42/31 30/39/30 32/35/32
f 30/39/30 33/33/33 32/35/32
f 32/35/32 33/33/33 25/26/25
f 33/33/33 34/29/34 25/26/25
f 25/26/25 34/29/34 26/23/26
f 34/29/34 35/30/35 26/23/26
f 26/23/26 35/30/35 27/24/27
f 35/30/35 36/31/36 27/24/27
f 27/24/27 36/31/36 28/27/28
f 37/52/37 38/45/38 29/46/29
f 29/46/29 38/45/38 30/39/30
f 38/45/38 39/38/39 30/39/30
f 30/39/30 39/38/39 33/33/33
f 39/38/39 40/34/40 33/33/33
f 33/33/33 40/34/40 34/29/34
f 40/34/40 41/36/41 34/29/34
f 34/29/34 41/36/41 35/30/35
f 41/36/41 42/37/42 35/30/35
f 35/30/35 42/37/42 36/31/36
f 37/52/37 43/51/43 38/45/38
f 43/51/43 44/44/44 38/45/38
f 38/45/38 44/44/44 39/38/39
f 44/44/44 45/40/45 39/38/39
f 39/38/39 45/40/45 40/34/40
f 45/40/45 46/41/46 40/34/40
f 40/34/40 46/41/46 41/36/41
f 46/41/46 47/43/47 41/36/41
f 41/36/41 47/43/47 42/37/42
f 43/51/43 48/50/48 44/44/44
f 48/50/48 49/47/49 44/44/44
f 44/44/44 49/47/49 45/40/45
f 49/47/49 50/48/50 45/40/45
f 45/40/45 50/48/50 46/41/46
f 50/48/50 51/49/51 46/41/46
f 46/41/46 51/49/51 47/43/47
f 2/28/2 10/18/10 3/25/3
f 3/25/3 10/18/10 52/22/52
f 10/18/10 4/12/4 52/22/52
f 52/22/52 4/12/4 6/21/6
s off
f 1/32/53 3/25/54 54/53/55 53/54/56
f 6/21/57 7/20/58 56/57/59 55/56/60
f 3/25/61 52/22/62 57/55/63 54/53/64
f 52/22/65 6/21/66 55/56/67 57/55/68
