# This file uses centimeters as units for non-parametric coordinates.

mtllib waterfall2.mtl
g default
v -98899.296875 5126.607910 46053.457031
v -98252.421875 5126.607910 46053.457031
v -97605.546875 5126.607910 46053.457031
v -98899.296875 5126.607910 45406.582031
v -98252.421875 5126.607910 45406.582031
v -97605.546875 5126.607910 45406.582031
v -98899.296875 5126.607910 44759.707031
v -98252.421875 5126.607910 44759.707031
v -97605.546875 5126.607910 44759.707031
v -99355.484375 5020.081543 45526.746094
v -99366.242188 5074.375488 45270.546875
v -99355.937500 5074.903320 44981.699219
v -99446.570313 4870.985352 45499.578125
v -99515.257813 4968.777832 45229.277344
v -99506.335938 4983.994629 44928.617188
v -99496.484375 4695.053223 45469.527344
v -99580.453125 4793.871582 45236.597656
v -99571.546875 4809.087891 44935.945313
v -99569.734375 4379.918945 45421.886719
v -99657.484375 4498.294434 45277.683594
v -99751.835938 4515.283691 44955.410156
v -99582.898438 3481.220703 45641.214844
v -99831.234375 3869.753418 45342.062500
v -99958.734375 3928.151855 44935.527344
v -100021.609375 2996.733398 45592.804688
v -100149.664063 3170.187988 45314.730469
v -100135.890625 3186.737061 45056.750000
v -100410.890625 2806.450928 45506.167969
v -100462.625000 2851.294189 45165.203125
v -100335.687500 2877.998291 44931.148438
v -100707.835938 2452.395020 45271.320313
v -100732.640625 2487.775146 45011.546875
v -100621.468750 2504.885010 44694.765625
v -100992.234375 2038.688843 45338.000000
v -100992.453125 2043.751465 45031.574219
v -100846.593750 2060.103760 44759.074219
v -101251.664063 1373.688843 45361.695313
v -101274.101563 1405.123657 45028.781250
v -101106.015625 1395.104004 44782.769531
v -101390.210938 916.520325 45217.550781
v -101408.437500 964.905640 44869.265625
v -101222.554688 936.076904 44672.433594
v -101554.804688 738.882263 44930.632813
v -101581.328125 782.330444 44595.980469
v -101432.664063 801.109741 44460.984375
v -101746.312500 597.053528 44569.027344
v -101673.429688 616.215027 44284.843750
v -101349.734375 563.755920 44085.800781
v -101786.929688 478.904816 44410.472656
v -101739.007813 495.958923 44084.261719
v -101573.093750 487.008820 43894.335938
v -99097.195313 5086.852539 43403.492188
v -94863.046875 5086.852539 42768.777344
v -99731.921875 5086.852539 39169.285156
v -95497.734375 5086.852539 38534.570313
v -99374.726563 5089.478516 42081.390625
v -95180.351563 5086.852539 40651.667969
v -99695.125000 4572.153320 43466.957031
v -99998.703125 4745.290039 42366.914063
v -100261.437500 4615.695801 40035.246094
v -100337.687500 4061.407227 43347.414063
v -100532.726563 4085.257080 42658.085938
v -100539.843750 4037.202148 41980.804688
v -100530.843750 3278.403320 43365.664063
v -100738.507813 3303.529053 42750.019531
v -100769.781250 3298.201172 42024.839844
v -100684.562500 2437.617676 43321.628906
v -100919.554688 2444.433105 42805.765625
v -100808.984375 2542.471680 41951.511719
v -100893.757813 1333.796753 43730.941406
v -101207.789063 1348.812866 42911.230469
v -101156.710938 1305.359863 41644.316406
v -101242.484375 740.489075 43978.496094
v -101541.359375 693.188782 42997.453125
v -101516.757813 710.825928 41801.863281
v -101387.273438 554.853088 44130.308594
v -101713.171875 503.278290 43060.589844
v -101699.796875 521.052734 41650.054688
v -101999.445313 451.214508 44421.144531
v -102360.851563 451.214020 43164.285156
v -102357.015625 451.214020 41640.441406
v -102684.750000 451.214508 44421.144531
v -103046.156250 451.214020 43164.285156
v -103042.328125 451.214020 41640.441406
vt 0.698814 0.489277
vt 0.702757 0.548558
vt 0.643680 0.552319
vt 0.639411 0.493354
vt 0.706519 0.607521
vt 0.647527 0.611201
vt 0.584966 0.556142
vt 0.581022 0.497604
vt 0.588761 0.614926
vt 0.623155 0.452304
vt 0.646784 0.449216
vt 0.597937 0.455192
vt 0.617781 0.437388
vt 0.643302 0.432067
vt 0.592698 0.440354
vt 0.617875 0.421703
vt 0.639959 0.414685
vt 0.592940 0.424625
vt 0.620282 0.396107
vt 0.634387 0.387872
vt 0.593523 0.396474
vt 0.623555 0.345403
vt 0.658807 0.323633
vt 0.590004 0.348135
vt 0.618847 0.285275
vt 0.645411 0.278276
vt 0.597895 0.288275
vt 0.602909 0.248726
vt 0.631579 0.247217
vt 0.582604 0.258939
vt 0.587955 0.210321
vt 0.610607 0.207914
vt 0.559785 0.218479
vt 0.587619 0.165780
vt 0.613921 0.163674
vt 0.562400 0.173936
vt 0.582798 0.106675
vt 0.610984 0.102424
vt 0.559132 0.113626
vt 0.563982 0.069251
vt 0.594270 0.062772
vt 0.543616 0.078996
vt 0.539833 0.048379
vt 0.567775 0.045042
vt 0.528568 0.059966
vt 0.511566 0.036640
vt 0.535270 0.027709
vt 0.491677 0.062089
vt 0.492430 0.028642
vt 0.519568 0.019531
vt 0.475702 0.042236
vt 0.295444 0.596871
vt 0.204136 0.968627
vt 0.019531 0.956398
vt 0.043254 0.587587
vt 0.411904 0.609571
vt 0.389339 0.980469
vt 0.314877 0.534683
vt 0.414584 0.538415
vt 0.114455 0.522611
vt 0.335383 0.462192
vt 0.396993 0.465699
vt 0.278546 0.461062
vt 0.340520 0.394309
vt 0.396174 0.393952
vt 0.279700 0.397068
vt 0.341585 0.319956
vt 0.389070 0.321665
vt 0.269817 0.334753
vt 0.345959 0.223035
vt 0.419632 0.228614
vt 0.237178 0.227941
vt 0.350094 0.158489
vt 0.436270 0.171890
vt 0.246861 0.167888
vt 0.354014 0.135538
vt 0.447985 0.152222
vt 0.232076 0.146179
vt 0.357614 0.078429
vt 0.467239 0.098080
vt 0.226640 0.089374
vt 0.352382 0.019531
vt 0.461688 0.040211
vt 0.221829 0.030393
vn -0.040328 0.999119 0.011654
vn 0.000000 1.000000 0.000000
vn 0.000000 1.000000 0.000000
vn -0.057802 0.998256 0.012034
vn 0.000000 1.000000 0.000000
vn 0.000000 1.000000 0.000000
vn 0.000000 1.000000 0.000000
vn -0.030278 0.999542 -0.000182
vn 0.000000 1.000000 0.000000
vn -0.255324 0.965500 0.051175
vn -0.288858 0.952758 0.093883
vn -0.193650 0.981071 0.000240
vn -0.816187 0.559441 0.144447
vn -0.831320 0.439721 0.339930
vn -0.797352 0.603504 -0.003595
vn -0.912396 0.335137 0.234984
vn -0.862087 0.227456 0.452846
vn -0.918310 0.386631 0.084984
vn -0.858183 0.287987 0.424954
vn -0.676595 0.214527 0.704413
vn -0.907709 0.327487 0.262329
vn -0.799465 0.302577 0.518945
vn -0.611380 0.314903 0.725982
vn -0.915528 0.312229 0.253619
vn -0.764779 0.464381 0.446614
vn -0.621204 0.445275 0.644854
vn -0.891466 0.443221 0.094035
vn -0.755475 0.653610 0.045292
vn -0.701926 0.630202 0.331881
vn -0.716664 0.665140 -0.209718
vn -0.822031 0.556026 -0.122882
vn -0.828105 0.545423 0.129445
vn -0.777582 0.553421 -0.298480
vn -0.887416 0.419524 -0.191028
vn -0.895233 0.441214 0.062350
vn -0.827950 0.380454 -0.412013
vn -0.914939 0.355063 -0.191879
vn -0.939527 0.335624 0.068164
vn -0.773087 0.347787 -0.530453
vn -0.837320 0.514638 -0.184506
vn -0.940862 0.324584 0.097077
vn -0.583549 0.618364 -0.526400
vn -0.572786 0.797573 -0.189195
vn -0.805365 0.582811 0.108249
vn -0.293387 0.853700 -0.430257
vn -0.475534 0.817819 -0.324099
vn -0.762693 0.646597 -0.014541
vn -0.214748 0.886972 -0.408856
vn -0.285295 0.902022 -0.323981
vn -0.819063 0.559028 -0.128935
vn -0.159604 0.924255 -0.346814
vn -0.085047 0.996296 0.012736
vn 0.000284 1.000000 -0.000111
vn 0.000178 1.000000 -0.000546
vn -0.045765 0.998947 0.003154
vn -0.055428 0.998255 0.020372
vn 0.000478 1.000000 0.000681
vn -0.645534 0.756614 0.104024
vn -0.584839 0.781291 0.218054
vn -0.577070 0.815552 0.043189
vn -0.839689 0.522903 0.146614
vn -0.781533 0.556266 0.282443
vn -0.843576 0.535989 0.033095
vn -0.965510 0.212579 0.150334
vn -0.918825 0.221197 0.326853
vn -0.979657 0.200059 -0.015737
vn -0.963398 0.243261 0.112641
vn -0.896603 0.248241 0.366714
vn -0.972521 0.225348 -0.058499
vn -0.917691 0.382763 0.106468
vn -0.854319 0.411276 0.317790
vn -0.932306 0.357841 -0.052494
vn -0.819286 0.565289 0.096016
vn -0.777706 0.581870 0.237907
vn -0.837632 0.545759 -0.022781
vn -0.253508 0.966920 0.028282
vn -0.244548 0.968431 0.048357
vn -0.224618 0.974437 0.004341
vn -0.045921 0.998937 0.003941
vn -0.060065 0.998173 0.006599
vn -0.044293 0.999015 0.002624
vn 0.000000 1.000000 -0.000000
vn 0.000000 1.000000 -0.000000
vn 0.000000 1.000000 -0.000000
s 1
g pPlane5
usemtl initialShadingGroup
f 1/1/1 2/2/2 5/3/3 4/4/4
f 2/2/2 3/5/5 6/6/6 5/3/3
f 4/4/4 5/3/3 8/7/7 7/8/8
f 5/3/3 6/6/6 9/9/9 8/7/7
f 1/1/1 4/4/4 11/10/10 10/11/11
f 4/4/4 7/8/8 12/12/12 11/10/10
f 10/11/11 11/10/10 14/13/13 13/14/14
f 11/10/10 12/12/12 15/15/15 14/13/13
f 13/14/14 14/13/13 17/16/16 16/17/17
f 14/13/13 15/15/15 18/18/18 17/16/16
f 16/17/17 17/16/16 20/19/19 19/20/20
f 17/16/16 18/18/18 21/21/21 20/19/19
f 19/20/20 20/19/19 23/22/22 22/23/23
f 20/19/19 21/21/21 24/24/24 23/22/22
f 22/23/23 23/22/22 26/25/25 25/26/26
f 23/22/22 24/24/24 27/27/27 26/25/25
f 25/26/26 26/25/25 29/28/28 28/29/29
f 26/25/25 27/27/27 30/30/30 29/28/28
f 28/29/29 29/28/28 32/31/31 31/32/32
f 29/28/28 30/30/30 33/33/33 32/31/31
f 31/32/32 32/31/31 35/34/34 34/35/35
f 32/31/31 33/33/33 36/36/36 35/34/34
f 34/35/35 35/34/34 38/37/37 37/38/38
f 35/34/34 36/36/36 39/39/39 38/37/37
f 37/38/38 38/37/37 41/40/40 40/41/41
f 38/37/37 39/39/39 42/42/42 41/40/40
f 40/41/41 41/40/40 44/43/43 43/44/44
f 41/40/40 42/42/42 45/45/45 44/43/43
f 43/44/44 44/43/43 47/46/46 46/47/47
f 44/43/43 45/45/45 48/48/48 47/46/46
f 46/47/47 47/46/46 50/49/49 49/50/50
f 47/46/46 48/48/48 51/51/51 50/49/49
s 2
f 56/52/52 57/53/53 55/54/54 54/55/55
f 52/56/56 53/57/57 57/53/53 56/52/52
f 52/56/56 56/52/52 59/58/58 58/59/59
f 56/52/52 54/55/55 60/60/60 59/58/58
f 58/59/59 59/58/58 62/61/61 61/62/62
f 59/58/58 60/60/60 63/63/63 62/61/61
f 61/62/62 62/61/61 65/64/64 64/65/65
f 62/61/61 63/63/63 66/66/66 65/64/64
f 64/65/65 65/64/64 68/67/67 67/68/68
f 65/64/64 66/66/66 69/69/69 68/67/67
f 67/68/68 68/67/67 71/70/70 70/71/71
f 68/67/67 69/69/69 72/72/72 71/70/70
f 70/71/71 71/70/70 74/73/73 73/74/74
f 71/70/70 72/72/72 75/75/75 74/73/73
f 73/74/74 74/73/73 77/76/76 76/77/77
f 74/73/73 75/75/75 78/78/78 77/76/76
f 76/77/77 77/76/76 80/79/79 79/80/80
f 77/76/76 78/78/78 81/81/81 80/79/79
f 79/80/80 80/79/79 83/82/82 82/83/83
f 80/79/79 81/81/81 84/84/84 83/82/82
