# This file uses centimeters as units for non-parametric coordinates.

mtllib water_foutain.mtl
g default
v -131127.583035 12913.942080 77164.738899
v -131339.619503 12913.942080 76847.408805
v -131656.933495 12913.942080 76635.380388
v -132031.250000 12913.942080 76560.930919
v -132405.550403 12913.942080 76635.380388
v -132722.864394 12913.942080 76847.408805
v -132934.916965 12913.942080 77164.738899
v -133009.342280 12913.942080 77539.047352
v -132934.916965 12913.942080 77913.347755
v -132722.864394 12913.942080 78230.669798
v -132405.550403 12913.942080 78442.706266
v -132031.250000 12913.942080 78517.155735
v -131656.933495 12913.942080 78442.706266
v -131339.619503 12913.942080 78230.669798
v -131127.583035 12913.942080 77913.347755
v -131053.125515 12913.942080 77539.047352
v -124433.128954 4675.246232 74391.816207
v -126215.898665 4675.246232 71723.639659
v -128884.010803 4675.246232 69940.942409
v -132031.266102 4675.246232 69314.856752
v -135178.497248 4675.246232 69940.934358
v -137846.633540 4675.246232 71723.639659
v -139629.346892 4675.246232 74391.808155
v -140255.408396 4675.246232 77539.071506
v -139629.346892 4675.246232 80686.302652
v -137846.633540 4675.246232 83354.398688
v -135178.529453 4675.246232 85137.184501
v -132031.266102 4675.246232 85763.213800
v -128884.018854 4675.246232 85137.184501
v -126215.898665 4675.246232 83354.398688
v -124433.137005 4675.246232 80686.302652
v -123807.091604 4675.246232 77539.071506
v -129706.706824 7292.704230 75214.471972
v -128994.086843 7292.704230 76280.990609
v -130773.217410 7292.704230 74501.851991
v -132031.266102 7292.704230 74251.620618
v -133289.298692 7292.704230 74501.851991
v -134355.793176 7292.704230 75214.471972
v -135068.437311 7292.704230 76280.990609
v -135318.652581 7292.704230 77539.063455
v -135068.437311 7292.704230 78797.087994
v -134355.793176 7292.704230 79863.598579
v -133289.298692 7292.704230 80576.226612
v -132031.266102 7292.704230 80826.457984
v -130773.217410 7292.704230 80576.226612
v -129706.706824 7292.704230 79863.598579
v -128994.086843 7292.704230 78797.087994
v -128743.831317 7292.704230 77539.063455
v -129551.769484 7683.748617 76511.995710
v -130133.533272 7683.748617 75641.298419
v -131004.206409 7683.748617 75059.550734
v -132031.250000 7683.748617 74855.251472
v -133058.293591 7683.748617 75059.550734
v -133928.966728 7683.748617 75641.298419
v -134510.730516 7683.748617 76511.995710
v -134715.005625 7683.748617 77539.063455
v -134510.730516 7683.748617 78566.074841
v -133928.966728 7683.748617 79436.764081
v -133058.293591 7683.748617 80018.527868
v -132031.250000 7683.748617 80222.827131
v -131004.206409 7683.748617 80018.527868
v -130133.533272 7683.748617 79436.764081
v -129551.769484 7683.748617 78566.074841
v -129347.478273 7683.748617 77539.063455
v -130192.371459 9908.464430 75700.152709
v -129628.642365 9908.464430 76543.838216
v -131036.056966 9908.464430 75136.415564
v -132031.250000 9908.464430 74938.476752
v -133026.443034 9908.464430 75136.415564
v -133870.128541 9908.464430 75700.152709
v -134433.857635 9908.464430 76543.838216
v -134631.788396 9908.464430 77539.055404
v -134433.857635 9908.464430 78534.224284
v -133870.128541 9908.464430 79377.917842
v -133026.443034 9908.464430 79941.663038
v -132031.250000 9908.464430 80139.609902
v -131036.056966 9908.464430 79941.663038
v -130192.371459 9908.464430 79377.917842
v -129628.642365 9908.464430 78534.224284
v -129430.687450 9908.464430 77539.055404
v -128082.553854 4675.246232 75903.453623
v -127757.204762 4675.246232 77539.063455
v -128082.561905 4675.246232 79174.641082
v -129009.045977 4675.246232 80561.251375
v -130395.656271 4675.246232 81487.759601
v -132031.266102 4675.246232 81813.100642
v -133666.867883 4675.246232 81487.759601
v -135053.462074 4675.246232 80561.251375
v -135979.962249 4675.246232 79174.641082
v -136305.279136 4675.246232 77539.063455
v -135979.962249 4675.246232 75903.453623
v -135053.462074 4675.246232 74516.819176
v -133666.867883 4675.246232 73590.319001
v -132031.266102 4675.246232 73265.010166
v -130395.648219 4675.246232 73590.319001
v -129009.045977 4675.246232 74516.819176
v -128082.553854 6615.967451 75903.453623
v -127757.204762 6615.967451 77539.063455
v -128082.561905 6615.967451 79174.641082
v -129009.045977 6615.967451 80561.251375
v -130395.656271 6615.967451 81487.759601
v -132031.266102 6615.967451 81813.100642
v -133666.867883 6615.967451 81487.759601
v -135053.462074 6615.967451 80561.251375
v -135979.962249 6615.967451 79174.641082
v -136305.279136 6615.967451 77539.063455
v -135979.962249 6615.967451 75903.453623
v -135053.462074 6615.967451 74516.819176
v -133666.867883 6615.967451 73590.319001
v -132031.266102 6615.967451 73265.010166
v -130395.648219 6615.967451 73590.319001
v -129009.045977 6615.967451 74516.819176
v -129596.034995 8685.549173 76530.336349
v -130167.412732 8685.549173 75675.193982
v -131022.547048 8685.549173 75103.816245
v -132031.250000 8685.549173 74903.180280
v -133039.952952 8685.549173 75103.816245
v -133895.071166 8685.549173 75675.193982
v -134466.465005 8685.549173 76530.336349
v -134667.084868 8685.549173 77539.055404
v -134466.465005 8685.549173 78547.742253
v -133895.071166 8685.549173 79402.876569
v -133039.952952 8685.549173 79974.262357
v -132031.250000 8685.549173 80174.906374
v -131022.547048 8685.549173 79974.262357
v -130167.412732 8685.549173 79402.876569
v -129596.034995 8685.549173 78547.742253
v -129395.390979 8685.549173 77539.055404
v -129739.829471 11193.751347 76589.899145
v -130277.472670 11193.751347 75785.253920
v -131082.109844 11193.751347 75247.610721
v -132031.250000 11193.751347 75058.826126
v -132980.390156 11193.751347 75247.610721
v -133785.027330 11193.751347 75785.253920
v -134322.670529 11193.751347 76589.899145
v -134511.439022 11193.751347 77539.055404
v -134322.670529 11193.751347 78488.179457
v -133785.027330 11193.751347 79292.816632
v -132980.390156 11193.751347 79830.467881
v -132031.250000 11193.751347 80019.260528
v -131082.109844 11193.751347 79830.467881
v -130277.472670 11193.751347 79292.816632
v -129739.829471 11193.751347 78488.179457
v -129551.036825 11193.751347 77539.055404
v -132031.250000 12913.942080 77539.047352
vt 0.051115 0.472109
vt 0.055888 0.464967
vt 0.063029 0.460195
vt 0.071454 0.458519
vt 0.079878 0.460195
vt 0.087020 0.464967
vt 0.091793 0.472109
vt 0.093468 0.480533
vt 0.091793 0.488958
vt 0.087020 0.496100
vt 0.079878 0.500872
vt 0.071454 0.502548
vt 0.063029 0.500872
vt 0.055888 0.496100
vt 0.051115 0.488958
vt 0.049439 0.480533
vt 0.795326 0.159396
vt 0.854390 0.159396
vt 0.913455 0.159396
vt 0.972521 0.159396
vt 0.027479 0.159397
vt 0.086544 0.159397
vt 0.145609 0.159397
vt 0.204674 0.159397
vt 0.263740 0.159397
vt 0.322804 0.159397
vt 0.381869 0.159396
vt 0.440934 0.159396
vt 0.500000 0.159396
vt 0.559066 0.159396
vt 0.618130 0.159396
vt 0.677195 0.159396
vt 0.736260 0.159396
vt 0.854390 0.299001
vt 0.795326 0.299001
vt 0.913455 0.299001
vt 0.972521 0.299001
vt 0.086544 0.299002
vt 0.027479 0.299002
vt 0.145609 0.299001
vt 0.204674 0.299001
vt 0.263740 0.299001
vt 0.322804 0.299001
vt 0.381869 0.299001
vt 0.440934 0.299001
vt 0.500000 0.299001
vt 0.559066 0.299001
vt 0.618130 0.299001
vt 0.677196 0.299001
vt 0.736260 0.299001
vt 0.795326 0.310861
vt 0.854390 0.310861
vt 0.913455 0.310861
vt 0.972521 0.310861
vt 0.027479 0.310862
vt 0.086544 0.310862
vt 0.145609 0.310862
vt 0.204674 0.310862
vt 0.263740 0.310862
vt 0.322804 0.310861
vt 0.381869 0.310861
vt 0.440934 0.310861
vt 0.500000 0.310861
vt 0.559066 0.310861
vt 0.618130 0.310861
vt 0.677196 0.310861
vt 0.736260 0.310861
vt 0.854390 0.372057
vt 0.795326 0.372057
vt 0.913455 0.372057
vt 0.972521 0.372057
vt 0.086544 0.372058
vt 0.027479 0.372058
vt 0.145609 0.372058
vt 0.204674 0.372058
vt 0.263740 0.372058
vt 0.322804 0.372057
vt 0.381869 0.372057
vt 0.440935 0.372057
vt 0.500000 0.372057
vt 0.559066 0.372057
vt 0.618130 0.372057
vt 0.677196 0.372057
vt 0.736260 0.372057
vt 0.795326 0.221161
vt 0.736260 0.221161
vt 0.677196 0.221161
vt 0.618130 0.221161
vt 0.559066 0.221161
vt 0.500000 0.221161
vt 0.440934 0.221161
vt 0.381869 0.221162
vt 0.322804 0.221162
vt 0.263740 0.221162
vt 0.204674 0.221162
vt 0.145609 0.221162
vt 0.086544 0.221162
vt 0.027479 0.221162
vt 0.972521 0.221161
vt 0.913455 0.221161
vt 0.854390 0.221161
vt 0.795326 0.269852
vt 0.736260 0.269852
vt 0.677196 0.269852
vt 0.618130 0.269852
vt 0.559066 0.269853
vt 0.500000 0.269853
vt 0.440934 0.269853
vt 0.381869 0.269853
vt 0.322804 0.269853
vt 0.263740 0.269853
vt 0.204674 0.269853
vt 0.145609 0.269853
vt 0.086544 0.269853
vt 0.027479 0.269853
vt 0.972521 0.269852
vt 0.913455 0.269852
vt 0.854390 0.269852
vt 0.795326 0.330059
vt 0.854390 0.330059
vt 0.913455 0.330059
vt 0.972521 0.330059
vt 0.027479 0.330060
vt 0.086544 0.330060
vt 0.145609 0.330060
vt 0.204674 0.330060
vt 0.263740 0.330059
vt 0.322804 0.330059
vt 0.381869 0.330059
vt 0.440934 0.330059
vt 0.500000 0.330059
vt 0.559066 0.330059
vt 0.618130 0.330059
vt 0.677196 0.330059
vt 0.736260 0.330059
vt 0.795326 0.373479
vt 0.854390 0.373479
vt 0.913455 0.373479
vt 0.972521 0.373478
vt 0.027479 0.373479
vt 0.086544 0.373479
vt 0.145609 0.373479
vt 0.204674 0.373479
vt 0.263740 0.373479
vt 0.322804 0.373479
vt 0.381869 0.373479
vt 0.440935 0.373479
vt 0.500000 0.373479
vt 0.559066 0.373479
vt 0.618130 0.373479
vt 0.677196 0.373479
vt 0.736260 0.373479
vt 0.795326 0.415768
vt 0.736260 0.415768
vt 0.677196 0.415768
vt 0.618130 0.415768
vt 0.559066 0.415768
vt 0.500000 0.415768
vt 0.440935 0.415768
vt 0.381870 0.415768
vt 0.322804 0.415768
vt 0.263740 0.415768
vt 0.204674 0.415768
vt 0.145609 0.415768
vt 0.086544 0.415768
vt 0.027479 0.415769
vt 0.972521 0.415768
vt 0.913455 0.415768
vt 0.854390 0.415768
vt 0.071454 0.480533
vn 0.652212 0.708263 -0.270154
vn 0.499180 0.708268 -0.499175
vn 0.000000 1.000000 0.000000
vn 0.270150 0.708268 -0.652208
vn -0.000000 0.708263 -0.705948
vn -0.270151 0.708267 -0.652209
vn -0.499174 0.708271 -0.499176
vn -0.652218 0.708261 -0.270144
vn -0.705952 0.708260 0.000000
vn -0.652219 0.708258 0.270150
vn -0.499179 0.708266 0.499179
vn -0.270155 0.708265 0.652210
vn -0.000000 0.708263 0.705949
vn 0.270153 0.708266 0.652209
vn 0.499183 0.708264 0.499177
vn 0.652213 0.708260 0.270160
vn 0.705950 0.708262 0.000000
vn 0.000000 1.000000 0.000000
vn 0.000000 1.000000 0.000000
vn 0.202373 0.958171 -0.202370
vn 0.264413 0.958171 -0.109522
vn 0.000000 1.000000 0.000000
vn 0.109521 0.958171 -0.264412
vn 0.000000 1.000000 -0.000000
vn 0.000000 0.958170 -0.286201
vn 0.000000 1.000000 -0.000000
vn -0.109521 0.958171 -0.264411
vn 0.000000 1.000000 0.000000
vn -0.202374 0.958170 -0.202371
vn 0.000000 1.000000 0.000000
vn -0.264412 0.958171 -0.109520
vn 0.000000 1.000000 0.000000
vn -0.286199 0.958170 0.000000
vn 0.000000 1.000000 -0.000000
vn -0.264412 0.958171 0.109522
vn 0.000000 1.000000 -0.000000
vn -0.202375 0.958170 0.202373
vn 0.000000 1.000000 -0.000000
vn -0.109524 0.958171 0.264410
vn 0.000000 1.000000 -0.000000
vn 0.000000 0.958171 0.286197
vn 0.000000 1.000000 -0.000000
vn 0.109524 0.958171 0.264412
vn 0.000000 1.000000 0.000000
vn 0.202374 0.958171 0.202371
vn 0.000000 1.000000 0.000000
vn 0.264414 0.958170 0.109524
vn 0.000000 1.000000 -0.000000
vn 0.286195 0.958171 0.000001
vn 0.674249 0.301313 -0.674239
vn 0.880943 0.301315 -0.364895
vn 0.364891 0.301313 -0.880946
vn -0.000000 0.301313 -0.953525
vn -0.364894 0.301313 -0.880944
vn -0.674249 0.301315 -0.674239
vn -0.880946 0.301313 -0.364889
vn -0.953525 0.301313 -0.000000
vn -0.880944 0.301315 0.364894
vn -0.674247 0.301316 0.674240
vn -0.364902 0.301316 0.880940
vn 0.000000 0.301316 0.953524
vn 0.364899 0.301315 0.880942
vn 0.674248 0.301312 0.674241
vn 0.880942 0.301312 0.364901
vn 0.953525 0.301313 0.000002
vn 0.395680 0.828781 -0.395676
vn 0.516980 0.828780 -0.214139
vn 0.214135 0.828781 -0.516980
vn -0.000001 0.828779 -0.559576
vn -0.214136 0.828781 -0.516979
vn -0.395679 0.828781 -0.395676
vn -0.516981 0.828780 -0.214135
vn -0.559575 0.828780 0.000000
vn -0.516975 0.828783 0.214138
vn -0.395677 0.828783 0.395675
vn -0.214140 0.828784 0.516973
vn -0.000000 0.828783 0.559570
vn 0.214139 0.828782 0.516977
vn 0.395681 0.828780 0.395677
vn 0.516980 0.828778 0.214145
vn 0.559574 0.828781 0.000000
vn 0.813724 0.473553 -0.337047
vn 0.622795 0.473555 -0.622794
vn 0.706613 0.037497 -0.706606
vn 0.923233 0.037493 -0.382407
vn 0.337050 0.473551 -0.813724
vn 0.382409 0.037497 -0.923232
vn 0.000001 0.473559 -0.880762
vn -0.000000 0.037497 -0.999297
vn -0.337050 0.473555 -0.813721
vn -0.382411 0.037497 -0.923231
vn -0.622795 0.473558 -0.622792
vn -0.706612 0.037499 -0.706607
vn -0.813722 0.473562 -0.337041
vn -0.923235 0.037499 -0.382401
vn -0.880762 0.473559 0.000001
vn -0.999297 0.037496 -0.000000
vn -0.813716 0.473565 0.337049
vn -0.923232 0.037495 0.382410
vn -0.622794 0.473563 0.622789
vn -0.706612 0.037494 0.706607
vn -0.337055 0.473557 0.813718
vn -0.382417 0.037494 0.923229
vn 0.000001 0.473556 0.880764
vn 0.000000 0.037495 0.999297
vn 0.337055 0.473554 0.813720
vn 0.382416 0.037497 0.923229
vn 0.622796 0.473557 0.622791
vn 0.706613 0.037497 0.706607
vn 0.813721 0.473552 0.337056
vn 0.923229 0.037493 0.382416
vn 0.880764 0.473555 0.000001
vn 0.999297 0.037491 -0.000000
vn 0.705784 0.061206 -0.705778
vn 0.922150 0.061204 -0.381961
vn 0.381961 0.061206 -0.922149
vn -0.000000 0.061205 -0.998125
vn -0.381962 0.061207 -0.922149
vn -0.705784 0.061206 -0.705778
vn -0.922153 0.061204 -0.381952
vn -0.998125 0.061202 -0.000000
vn -0.922151 0.061202 0.381958
vn -0.705786 0.061203 0.705776
vn -0.381969 0.061204 0.922146
vn 0.000000 0.061204 0.998125
vn 0.381969 0.061206 0.922146
vn 0.705786 0.061205 0.705777
vn 0.922148 0.061202 0.381966
vn 0.998125 0.061203 -0.000000
vn 0.843618 0.407682 -0.349434
vn 0.645677 0.407685 -0.645673
vn 0.349433 0.407685 -0.843617
vn 0.000000 0.407683 -0.913123
vn -0.349434 0.407684 -0.843617
vn -0.645675 0.407688 -0.645673
vn -0.843622 0.407683 -0.349424
vn -0.913126 0.407677 0.000000
vn -0.843620 0.407682 0.349430
vn -0.645679 0.407685 0.645672
vn -0.349440 0.407684 0.843614
vn 0.000000 0.407682 0.913124
vn 0.349438 0.407685 0.843615
vn 0.645681 0.407681 0.645672
vn 0.843617 0.407678 0.349441
vn 0.913124 0.407681 0.000000
s 1
g polySurface3 fountain_low fountain
usemtl initialShadingGroup
f 1/1/1 2/2/2 145/170/3
f 2/2/2 3/3/4 145/170/3
f 3/3/4 4/4/5 145/170/3
f 4/4/5 5/5/6 145/170/3
f 5/5/6 6/6/7 145/170/3
f 6/6/7 7/7/8 145/170/3
f 7/7/8 8/8/9 145/170/3
f 8/8/9 9/9/10 145/170/3
f 9/9/10 10/10/11 145/170/3
f 10/10/11 11/11/12 145/170/3
f 11/11/12 12/12/13 145/170/3
f 12/12/13 13/13/14 145/170/3
f 13/13/14 14/14/15 145/170/3
f 14/14/15 15/15/16 145/170/3
f 15/15/16 16/16/17 145/170/3
f 16/16/17 1/1/1 145/170/3
f 17/17/18 18/18/19 96/101/20 81/85/21
f 18/18/19 19/19/22 95/100/23 96/101/20
f 19/19/22 20/20/24 94/99/25 95/100/23
f 20/21/24 21/22/26 93/97/27 94/98/25
f 21/22/26 22/23/28 92/96/29 93/97/27
f 22/23/28 23/24/30 91/95/31 92/96/29
f 23/24/30 24/25/32 90/94/33 91/95/31
f 24/25/32 25/26/34 89/93/35 90/94/33
f 25/26/34 26/27/36 88/92/37 89/93/35
f 26/27/36 27/28/38 87/91/39 88/92/37
f 27/28/38 28/29/40 86/90/41 87/91/39
f 28/29/40 29/30/42 85/89/43 86/90/41
f 29/30/42 30/31/44 84/88/45 85/89/43
f 30/31/44 31/32/46 83/87/47 84/88/45
f 31/32/46 32/33/48 82/86/49 83/87/47
f 32/33/48 17/17/18 81/85/21 82/86/49
f 96/101/20 112/118/50 97/102/51 81/85/21
f 95/100/23 111/117/52 112/118/50 96/101/20
f 94/99/25 110/116/53 111/117/52 95/100/23
f 93/97/27 109/114/54 110/115/53 94/98/25
f 92/96/29 108/113/55 109/114/54 93/97/27
f 91/95/31 107/112/56 108/113/55 92/96/29
f 90/94/33 106/111/57 107/112/56 91/95/31
f 89/93/35 105/110/58 106/111/57 90/94/33
f 88/92/37 104/109/59 105/110/58 89/93/35
f 87/91/39 103/108/60 104/109/59 88/92/37
f 86/90/41 102/107/61 103/108/60 87/91/39
f 85/89/43 101/106/62 102/107/61 86/90/41
f 84/88/45 100/105/63 101/106/62 85/89/43
f 83/87/47 99/104/64 100/105/63 84/88/45
f 82/86/49 98/103/65 99/104/64 83/87/47
f 81/85/21 97/102/51 98/103/65 82/86/49
f 33/34/66 34/35/67 97/102/51 112/118/50
f 35/36/68 33/34/66 112/118/50 111/117/52
f 36/37/69 35/36/68 111/117/52 110/116/53
f 37/38/70 36/39/69 110/115/53 109/114/54
f 38/40/71 37/38/70 109/114/54 108/113/55
f 39/41/72 38/40/71 108/113/55 107/112/56
f 40/42/73 39/41/72 107/112/56 106/111/57
f 41/43/74 40/42/73 106/111/57 105/110/58
f 42/44/75 41/43/74 105/110/58 104/109/59
f 43/45/76 42/44/75 104/109/59 103/108/60
f 44/46/77 43/45/76 103/108/60 102/107/61
f 45/47/78 44/46/77 102/107/61 101/106/62
f 46/48/79 45/47/78 101/106/62 100/105/63
f 47/49/80 46/48/79 100/105/63 99/104/64
f 48/50/81 47/49/80 99/104/64 98/103/65
f 34/35/67 48/50/81 98/103/65 97/102/51
f 49/51/82 50/52/83 114/120/84 113/119/85
f 50/52/83 51/53/86 115/121/87 114/120/84
f 51/53/86 52/54/88 116/122/89 115/121/87
f 52/55/88 53/56/90 117/124/91 116/123/89
f 53/56/90 54/57/92 118/125/93 117/124/91
f 54/57/92 55/58/94 119/126/95 118/125/93
f 55/58/94 56/59/96 120/127/97 119/126/95
f 56/59/96 57/60/98 121/128/99 120/127/97
f 57/60/98 58/61/100 122/129/101 121/128/99
f 58/61/100 59/62/102 123/130/103 122/129/101
f 59/62/102 60/63/104 124/131/105 123/130/103
f 60/63/104 61/64/106 125/132/107 124/131/105
f 61/64/106 62/65/108 126/133/109 125/132/107
f 62/65/108 63/66/110 127/134/111 126/133/109
f 63/66/110 64/67/112 128/135/113 127/134/111
f 64/67/112 49/51/82 113/119/85 128/135/113
f 65/68/114 66/69/115 113/119/85 114/120/84
f 67/70/116 65/68/114 114/120/84 115/121/87
f 68/71/117 67/70/116 115/121/87 116/122/89
f 69/72/118 68/73/117 116/123/89 117/124/91
f 70/74/119 69/72/118 117/124/91 118/125/93
f 71/75/120 70/74/119 118/125/93 119/126/95
f 72/76/121 71/75/120 119/126/95 120/127/97
f 73/77/122 72/76/121 120/127/97 121/128/99
f 74/78/123 73/77/122 121/128/99 122/129/101
f 75/79/124 74/78/123 122/129/101 123/130/103
f 76/80/125 75/79/124 123/130/103 124/131/105
f 77/81/126 76/80/125 124/131/105 125/132/107
f 78/82/127 77/81/126 125/132/107 126/133/109
f 79/83/128 78/82/127 126/133/109 127/134/111
f 80/84/129 79/83/128 127/134/111 128/135/113
f 66/69/115 80/84/129 128/135/113 113/119/85
f 129/136/130 130/137/131 2/169/2 1/153/1
f 130/137/131 131/138/132 3/168/4 2/169/2
f 131/138/132 132/139/133 4/167/5 3/168/4
f 132/140/133 133/141/134 5/165/6 4/166/5
f 133/141/134 134/142/135 6/164/7 5/165/6
f 134/142/135 135/143/136 7/163/8 6/164/7
f 135/143/136 136/144/137 8/162/9 7/163/8
f 136/144/137 137/145/138 9/161/10 8/162/9
f 137/145/138 138/146/139 10/160/11 9/161/10
f 138/146/139 139/147/140 11/159/12 10/160/11
f 139/147/140 140/148/141 12/158/13 11/159/12
f 140/148/141 141/149/142 13/157/14 12/158/13
f 141/149/142 142/150/143 14/156/15 13/157/14
f 142/150/143 143/151/144 15/155/16 14/156/15
f 143/151/144 144/152/145 16/154/17 15/155/16
f 144/152/145 129/136/130 1/153/1 16/154/17
f 34/35/67 33/34/66 50/52/83 49/51/82
f 33/34/66 35/36/68 51/53/86 50/52/83
f 35/36/68 36/37/69 52/54/88 51/53/86
f 36/39/69 37/38/70 53/56/90 52/55/88
f 37/38/70 38/40/71 54/57/92 53/56/90
f 38/40/71 39/41/72 55/58/94 54/57/92
f 39/41/72 40/42/73 56/59/96 55/58/94
f 40/42/73 41/43/74 57/60/98 56/59/96
f 41/43/74 42/44/75 58/61/100 57/60/98
f 42/44/75 43/45/76 59/62/102 58/61/100
f 43/45/76 44/46/77 60/63/104 59/62/102
f 44/46/77 45/47/78 61/64/106 60/63/104
f 45/47/78 46/48/79 62/65/108 61/64/106
f 46/48/79 47/49/80 63/66/110 62/65/108
f 47/49/80 48/50/81 64/67/112 63/66/110
f 48/50/81 34/35/67 49/51/82 64/67/112
f 80/84/129 66/69/115 129/136/130 144/152/145
f 79/83/128 80/84/129 144/152/145 143/151/144
f 78/82/127 79/83/128 143/151/144 142/150/143
f 77/81/126 78/82/127 142/150/143 141/149/142
f 76/80/125 77/81/126 141/149/142 140/148/141
f 75/79/124 76/80/125 140/148/141 139/147/140
f 74/78/123 75/79/124 139/147/140 138/146/139
f 73/77/122 74/78/123 138/146/139 137/145/138
f 72/76/121 73/77/122 137/145/138 136/144/137
f 71/75/120 72/76/121 136/144/137 135/143/136
f 70/74/119 71/75/120 135/143/136 134/142/135
f 69/72/118 70/74/119 134/142/135 133/141/134
f 68/73/117 69/72/118 133/141/134 132/140/133
f 67/70/116 68/71/117 132/139/133 131/138/132
f 65/68/114 67/70/116 131/138/132 130/137/131
f 66/69/115 65/68/114 130/137/131 129/136/130
